<svg width="30" height="30" viewBox="0 0 30 30" fill="none" xmlns="http://www.w3.org/2000/svg">
<path d="M12.082 20.2422C12.082 20.3125 12.0117 20.3477 11.9062 20.3477C11.8008 20.3828 11.7305 20.3125 11.7305 20.2422C11.7305 20.1719 11.8008 20.1016 11.9062 20.1016C12.0117 20.1016 12.082 20.1719 12.082 20.2422ZM10.9922 20.0664C11.0273 19.9961 11.1328 19.9609 11.2383 19.9961C11.3438 20.0312 11.3789 20.1016 11.3789 20.1719C11.3438 20.2422 11.2383 20.2773 11.168 20.2422C11.0625 20.2422 10.9922 20.1367 10.9922 20.0664ZM12.5742 20.0312C12.6445 19.9961 12.75 20.0664 12.75 20.1367C12.7852 20.207 12.7148 20.2422 12.6094 20.2773C12.5039 20.3125 12.3984 20.2773 12.3984 20.207C12.3984 20.1016 12.4688 20.0312 12.5742 20.0312ZM14.8594 6.53125C19.7461 6.53125 23.7188 10.2578 23.7188 15.1094C23.7188 19.0117 21.3281 22.3516 17.8125 23.5117C17.3555 23.6172 17.1797 23.3359 17.1797 23.0898C17.1797 22.8086 17.2148 21.332 17.2148 20.1719C17.2148 19.3281 16.9336 18.8008 16.6172 18.5195C18.5859 18.3086 20.6602 18.0273 20.6602 14.6523C20.6602 13.668 20.3086 13.2109 19.7461 12.5781C19.8164 12.332 20.1328 11.418 19.6406 10.1875C18.9023 9.94141 17.2148 11.1367 17.2148 11.1367C16.5117 10.9258 15.7734 10.8555 15 10.8555C14.2617 10.8555 13.5234 10.9258 12.8203 11.1367C12.8203 11.1367 11.0977 9.97656 10.3945 10.1875C9.90234 11.418 10.1836 12.332 10.2891 12.5781C9.72656 13.2109 9.44531 13.668 9.44531 14.6523C9.44531 18.0273 11.4492 18.3086 13.418 18.5195C13.1367 18.7656 12.9258 19.1523 12.8555 19.7148C12.3281 19.9609 11.0625 20.3477 10.2891 18.9766C9.79688 18.1328 8.91797 18.0625 8.91797 18.0625C8.07422 18.0625 8.88281 18.625 8.88281 18.625C9.44531 18.8711 9.83203 19.8906 9.83203 19.8906C10.3594 21.4727 12.8203 20.9453 12.8203 20.9453C12.8203 21.6836 12.8203 22.8789 12.8203 23.125C12.8203 23.3359 12.6797 23.6172 12.2227 23.5469C8.70703 22.3516 6.28125 19.0117 6.28125 15.1094C6.28125 10.2578 10.0078 6.53125 14.8594 6.53125ZM9.69141 18.6602C9.72656 18.625 9.79688 18.6602 9.86719 18.6953C9.9375 18.7656 9.9375 18.8711 9.90234 18.9062C9.83203 18.9414 9.76172 18.9062 9.69141 18.8711C9.65625 18.8008 9.62109 18.6953 9.69141 18.6602ZM9.30469 18.3789C9.33984 18.3438 9.375 18.3438 9.44531 18.3789C9.51562 18.4141 9.55078 18.4492 9.55078 18.4844C9.51562 18.5547 9.44531 18.5547 9.375 18.5195C9.30469 18.4844 9.26953 18.4492 9.30469 18.3789ZM10.4297 19.6445C10.5 19.5742 10.6055 19.6094 10.6758 19.6797C10.7461 19.75 10.7461 19.8555 10.7109 19.8906C10.6758 19.9609 10.5703 19.9258 10.5 19.8555C10.3945 19.7852 10.3945 19.6797 10.4297 19.6445ZM10.043 19.1172C10.1133 19.082 10.1836 19.1172 10.2539 19.1875C10.2891 19.2578 10.2891 19.3633 10.2539 19.3984C10.1836 19.4336 10.1133 19.3984 10.043 19.3281C9.97266 19.2578 9.97266 19.1523 10.043 19.1172Z" fill="#141414"/>
</svg>
