<svg width="30" height="30" viewBox="0 0 30 30" fill="none" xmlns="http://www.w3.org/2000/svg">
<path d="M15 11.207C17.2148 11.207 19.043 13.0352 19.043 15.25C19.043 17.5 17.2148 19.293 15 19.293C12.75 19.293 10.957 17.5 10.957 15.25C10.957 13.0352 12.75 11.207 15 11.207ZM15 17.8867C16.4414 17.8867 17.6016 16.7266 17.6016 15.25C17.6016 13.8086 16.4414 12.6484 15 12.6484C13.5234 12.6484 12.3633 13.8086 12.3633 15.25C12.3633 16.7266 13.5586 17.8867 15 17.8867ZM20.1328 11.0664C20.1328 11.5938 19.7109 12.0156 19.1836 12.0156C18.6562 12.0156 18.2344 11.5938 18.2344 11.0664C18.2344 10.5391 18.6562 10.1172 19.1836 10.1172C19.7109 10.1172 20.1328 10.5391 20.1328 11.0664ZM22.8047 12.0156C22.875 13.3164 22.875 17.2188 22.8047 18.5195C22.7344 19.7852 22.4531 20.875 21.5391 21.8242C20.625 22.7383 19.5 23.0195 18.2344 23.0898C16.9336 23.1602 13.0312 23.1602 11.7305 23.0898C10.4648 23.0195 9.375 22.7383 8.42578 21.8242C7.51172 20.875 7.23047 19.7852 7.16016 18.5195C7.08984 17.2188 7.08984 13.3164 7.16016 12.0156C7.23047 10.75 7.51172 9.625 8.42578 8.71094C9.375 7.79688 10.4648 7.51562 11.7305 7.44531C13.0312 7.375 16.9336 7.375 18.2344 7.44531C19.5 7.51562 20.625 7.79688 21.5391 8.71094C22.4531 9.625 22.7344 10.75 22.8047 12.0156ZM21.1172 19.8906C21.5391 18.8711 21.4336 16.4102 21.4336 15.25C21.4336 14.125 21.5391 11.6641 21.1172 10.6094C20.8359 9.94141 20.3086 9.37891 19.6406 9.13281C18.5859 8.71094 16.125 8.81641 15 8.81641C13.8398 8.81641 11.3789 8.71094 10.3594 9.13281C9.65625 9.41406 9.12891 9.94141 8.84766 10.6094C8.42578 11.6641 8.53125 14.125 8.53125 15.25C8.53125 16.4102 8.42578 18.8711 8.84766 19.8906C9.12891 20.5938 9.65625 21.1211 10.3594 21.4023C11.3789 21.8242 13.8398 21.7188 15 21.7188C16.125 21.7188 18.5859 21.8242 19.6406 21.4023C20.3086 21.1211 20.8711 20.5938 21.1172 19.8906Z" fill="#141414"/>
</svg>
